<svg xmlns="http://www.w3.org/2000/svg" viewBox="304 304 1700 1700" width="512" height="512">
  <!-- Small-size chaos face: viewBox cropped to the drawing and a slight stroke to thicken the thin tips. Original: chaos.svg. -->
  <path transform="translate(369.2 369.2)" fill="#000000" stroke="#000000" stroke-width="30" stroke-linejoin="round" fill-rule="evenodd" d="M541.5,1420.3C513.6,1416.8 462.1,1404.7 430.5,1394.3C356.2,1370.0 307.5,1342.8 251.5,1294.6C200.9,1251.0 185.0,1235.6 164.5,1210.6C157.3,1201.9 147.7,1190.2 143.2,1184.6C120.0,1156.5 85.0,1096.4 71.2,1061.0C58.1,1027.6 46.4,993.2 36.9,960.7C32.4,945.4 28.9,914.1 27.0,872.5C26.4,861.5 25.3,843.5 24.4,832.5C19.6,774.0 33.1,668.8 51.8,618.4C82.5,536.1 99.4,499.5 126.7,456.5C164.4,397.1 172.3,386.9 210.5,348.1C250.2,307.7 289.3,277.8 333.5,253.9C390.7,223.0 424.6,209.2 494.7,188.1C533.4,176.5 536.7,175.7 564.8,170.9C577.8,168.7 592.5,166.2 597.5,165.3C618.1,161.5 651.3,163.3 667.7,168.9C693.6,177.8 716.3,201.9 712.1,216.0C706.7,233.9 666.8,251.2 621.0,255.5C583.2,259.0 525.1,273.6 489.8,288.3C442.0,308.4 373.1,352.2 339.0,384.2C306.2,415.0 286.2,438.0 269.7,464.0C265.0,471.4 256.8,483.6 251.6,491.0C238.0,510.3 234.0,518.1 216.7,558.5C193.8,612.0 192.9,614.5 184.6,653.5C177.1,689.0 173.0,711.7 171.8,723.8C170.3,741.3 171.3,802.9 173.4,815.0C176.9,835.1 188.1,889.3 190.6,897.7C197.3,921.2 223.7,974.9 242.6,1003.7C278.1,1057.9 296.7,1078.4 335.0,1105.1C359.8,1122.5 367.0,1126.1 395.5,1135.9C454.0,1156.1 497.7,1158.0 538.5,1142.1C570.4,1129.8 595.9,1092.8 607.5,1042.5C617.1,1000.9 628.5,958.5 635.6,938.7C649.7,899.1 650.5,889.3 641.0,875.5C633.0,863.8 614.8,855.2 554.5,834.6C497.5,815.1 472.8,820.2 450.8,856.2C447.7,861.3 443.6,867.9 441.8,870.9C426.4,896.1 402.5,895.6 381.3,869.5C349.2,830.0 385.2,737.2 444.6,706.3C478.4,688.7 512.9,692.7 570.5,721.1C636.2,753.4 687.7,768.3 722.2,765.0C765.0,760.9 789.7,742.3 811.4,697.7C831.1,657.2 834.7,636.5 830.6,586.8C829.8,577.3 828.8,564.1 828.5,557.5C827.0,528.8 820.9,506.2 796.7,439.0C794.2,432.1 790.4,418.2 788.2,408.0C785.9,397.8 783.0,385.3 781.6,380.3C775.5,357.6 775.6,338.6 782.1,292.5C786.9,257.8 793.9,247.2 834.5,212.5C855.0,194.9 871.0,184.5 896.5,171.9C928.0,156.5 939.8,153.4 982.0,150.0C1015.7,147.2 1023.7,147.5 1053.5,153.3C1122.5,166.7 1166.6,181.3 1219.5,208.0C1267.9,232.5 1285.3,245.2 1353.5,306.1C1379.4,329.2 1387.1,337.1 1404.5,358.4C1411.7,367.1 1421.3,378.8 1425.8,384.4C1449.0,412.5 1484.0,472.6 1497.8,508.0C1510.9,541.4 1522.6,575.8 1532.1,608.3C1536.6,623.6 1540.1,654.9 1542.0,696.5C1542.6,707.5 1543.7,725.5 1544.6,736.5C1549.4,795.0 1535.9,900.2 1517.2,950.6C1486.5,1032.9 1469.6,1069.5 1442.3,1112.5C1404.6,1171.9 1396.7,1182.1 1358.5,1220.9C1318.8,1261.3 1279.7,1291.2 1235.5,1315.1C1178.3,1346.0 1144.4,1359.8 1074.3,1380.9C1035.6,1392.5 1032.3,1393.3 1004.2,1398.1C991.2,1400.3 976.5,1402.8 971.5,1403.7C950.9,1407.5 917.7,1405.7 901.3,1400.1C875.4,1391.2 852.7,1367.1 856.9,1353.0C862.3,1335.1 902.2,1317.8 948.0,1313.5C985.8,1310.0 1043.9,1295.4 1079.2,1280.7C1127.0,1260.6 1195.9,1216.8 1230.0,1184.8C1262.8,1154.0 1282.8,1131.0 1299.3,1105.0C1304.0,1097.6 1312.2,1085.4 1317.4,1078.0C1331.0,1058.7 1335.0,1050.9 1352.3,1010.5C1375.2,957.0 1376.1,954.5 1384.4,915.5C1391.9,880.0 1396.0,857.3 1397.2,845.2C1398.7,827.7 1397.7,766.1 1395.6,754.0C1392.1,733.9 1380.9,679.7 1378.4,671.3C1371.7,647.8 1345.3,594.1 1326.4,565.3C1290.9,511.1 1272.3,490.6 1234.0,463.9C1209.2,446.5 1202.0,442.9 1173.5,433.1C1115.0,412.9 1071.3,411.0 1030.5,426.9C998.6,439.2 973.1,476.2 961.5,526.5C951.9,568.1 940.5,610.5 933.4,630.3C919.3,669.9 918.5,679.7 928.0,693.5C936.0,705.2 954.2,713.8 1014.5,734.4C1071.5,753.9 1096.2,748.8 1118.2,712.8C1121.3,707.7 1125.4,701.1 1127.2,698.1C1142.6,672.9 1166.5,673.4 1187.7,699.5C1219.8,739.0 1183.8,831.8 1124.4,862.7C1090.6,880.3 1056.1,876.3 998.5,847.9C932.8,815.6 881.3,800.7 846.8,804.0C804.0,808.1 779.3,826.7 757.6,871.3C737.9,911.8 734.3,932.5 738.4,982.2C739.2,991.7 740.2,1004.9 740.5,1011.5C742.0,1040.2 748.1,1062.8 772.3,1130.0C774.8,1136.9 778.6,1150.8 780.8,1161.0C783.1,1171.2 786.0,1183.7 787.4,1188.7C793.5,1211.4 793.4,1230.4 786.9,1276.5C782.1,1311.2 775.1,1321.8 734.5,1356.5C700.7,1385.4 656.3,1408.8 623.2,1415.0C603.6,1418.6 553.9,1421.9 541.5,1420.3Z"/>
</svg>